<?xml version="1.0" encoding="utf-8"?>
<!-- Generator: Adobe Illustrator 25.4.1, SVG Export Plug-In . SVG Version: 6.00 Build 0)  -->
<svg version="1.1" id="Layer_1" xmlns="http://www.w3.org/2000/svg" xmlns:xlink="http://www.w3.org/1999/xlink" x="0px" y="0px"
	 viewBox="0 0 64 60" style="enable-background:new 0 0 64 60;" xml:space="preserve">
<style type="text/css">
	.st0{fill:#057F84;}
	.st1{fill:#FCFCFD;}
</style>
<path class="st0" d="M16.2,33.7L8.4,16.3H1.6l14.6,30.1l14.4-30.1h-6.8L16.2,33.7z M39,45.7v-16l8.7,9.8l8.9-9.8v16h6v-30L47.8,31.8
	L33.1,15.7v30.1L39,45.7L39,45.7z"/>
<path class="st1" d="M33.3,52.4c-0.6-0.5-1.3-0.9-2.2-0.9c-2.1,0-3.8,1.7-3.8,3.9c0,2.2,1.7,3.9,3.8,3.9c1,0,1.8-0.4,2.4-1l0.1,0.9
	h1.7V48.6h-2V52.4z M31.3,57.4c-1.1,0-2-0.9-2-2c0-1.2,0.9-2,2-2s2,0.9,2,2C33.3,56.5,32.5,57.4,31.3,57.4z M44.3,55.1
	c0-2.1-1.5-3.7-3.6-3.7c-2.3,0-4,1.7-4,4c0,2.3,1.7,3.9,4.1,3.9c1.2,0,2.1-0.3,3-1.1l-1.1-1.3c-0.5,0.5-1.1,0.7-1.9,0.7
	c-1.2,0-2-0.6-2.2-1.6h5.6C44.3,55.9,44.3,55.6,44.3,55.1z M40.7,53.2c0.8,0,1.5,0.4,1.7,0.9c0.1,0.1,0.1,0.3,0.1,0.4h-3.8
	C38.9,53.7,39.6,53.2,40.7,53.2z M48.5,55.6l-1.9-4h-2.2l4.1,7.8l4.1-7.8h-2.2L48.5,55.6z"/>
</svg>
