<svg width="507" height="512" viewBox="0 0 507 512" fill="none" xmlns="http://www.w3.org/2000/svg">
<path fill-rule="evenodd" clip-rule="evenodd" d="M506.5 160H378.5C360.8 160 346.5 145.7 346.504 128L346.5 0H48C21.49 0 0 21.49 0 48V464C0 490.5 21.49 512 48 512H458.5C485.01 512 506.5 490.51 506.5 464V160ZM312.534 342.9L273.534 382V279.9C273.534 266.65 262.784 255.9 249.534 255.9C236.284 255.9 225.534 266.7 225.534 279.9V382L185.634 342.9C181.834 338.2 175.734 335.9 169.534 335.9C163.334 335.9 157.254 338.2 152.564 342.9C143.189 352.275 143.189 367.46 152.564 376.84L232.564 456.84C241.939 466.215 257.124 466.215 266.504 456.84L346.504 376.84C355.879 367.465 355.879 352.28 346.504 342.9C337.129 333.52 321.934 333.6 312.534 342.9ZM506.5 128H378.5V0L506.5 128ZM164.296 137.008C152.368 150.784 134.56 158.68 115.408 158.68C78.9516 158.68 50.3916 130.456 50.3916 94.5041C50.3916 58.3841 78.9516 30.3281 115.408 30.3281C134.56 30.3281 152.368 38.2241 164.296 52.0001L144.64 69.1361C137.752 60.7361 127 55.8641 115.408 55.8641C93.3996 55.8641 76.9356 72.4961 76.9356 94.5041C76.9356 116.512 93.5676 133.144 115.408 133.144C127 133.144 137.584 128.272 144.64 119.872L164.296 137.008ZM201.466 32.0081L234.394 106.096L266.986 32.0081H295.882L234.394 159.856L172.57 32.0081H201.466Z" fill="white"/>
</svg>
