<?xml version="1.0" encoding="utf-8"?>
<!-- Generator: Adobe Illustrator 25.3.1, SVG Export Plug-In . SVG Version: 6.00 Build 0)  -->
<svg version="1.1" id="Layer_1" xmlns="http://www.w3.org/2000/svg" xmlns:xlink="http://www.w3.org/1999/xlink" x="0px" y="0px"
	 viewBox="0 0 384 512" style="enable-background:new 0 0 384 512;" xml:space="preserve">
<style type="text/css">
	.st0{fill:#FFFFFF;}
</style>
<polygon class="st0" points="256,0 256,128 384,128 "/>
<path class="st0" d="M256,160c-17.7,0-32-14.3-32-32V0H48C21.5,0,0,21.5,0,48v416c0,26.5,21.5,48,48,48h288c26.5,0,48-21.5,48-48
	V160H256z M131.8,52.1l21.7,48.8L175,52.1h19l-40.5,84.2l-40.7-84.2C112.8,52.1,131.8,52.1,131.8,52.1z M255,295
	c9.4-9.3,24.6-9.4,34,0s9.4,24.6,0,33.9l-80,80c-9.4,9.4-24.6,9.4-33.9,0l-80-80c-9.4-9.4-9.4-24.6,0-33.9c4.7-4.7,10.8-7,17-7
	s12.3,2.3,16.1,7l39.9,39.1V232c0-13.2,10.8-24,24-24s24,10.8,24,24v102.1L255,295z M224.3,312.2l0.2-13.9h13.7L224.3,312.2z
	 M159.5,235.4l-0.1,10.4l-115.7,0.4v-10.4L159.5,235.4z M43.8,224.9v-25.3l138-0.5c-11.2,3.8-19.7,13.5-21.7,25.4L43.8,224.9z
	 M159.3,257.9l-0.1,10.4l-115.5,0.4v-10.4L159.3,257.9z M158.9,298.3l-0.2,14.4L145,298.3H158.9z M107.1,356.2l10.4,10.4h-74v-10.4
	H107.1z M43.5,344.8v-10.4h41.9l10.4,10.4H43.5z M128.8,377.8l10.4,10.4H43.5v-10.4H128.8z M150.4,399.5l10.4,10.4H43.5v-10.4H150.4
	z M75.1,51c12.6,0,24.4,5.2,32.2,14.3l-13,11.3c-4.5-5.5-11.6-8.7-19.3-8.7c-14.5,0-25.4,11-25.4,25.5s11,25.5,25.4,25.5
	c7.6,0,14.6-3.2,19.3-8.7l13,11.3c-7.9,9.1-19.6,14.3-32.2,14.3c-24,0-42.8-18.6-42.8-42.3C32.3,69.5,51.1,51,75.1,51z M43.4,297.9
	h37.7c-3.9,5.3-5.9,16.5-1.4,25.3H43.4V297.9z M340.5,457h-297v-10.4h297V457z M340.5,432.3h-297v-10.4h130.6
	c5.1,3.2,11,4.9,17.2,4.9s12.1-1.7,17.2-4.9h132V432.3z M340.5,409.8H221.9l10.4-10.4h108.3L340.5,409.8L340.5,409.8z M340.5,388.2
	h-97l10.4-10.4h86.6V388.2z M340.5,366.5h-75.3l10.4-10.4h65v10.4H340.5z M340.5,344.8h-53.6l10.4-10.4h43.3L340.5,344.8
	L340.5,344.8z M340.5,323.6h-36.2c4.5-8.8,2.5-20-1.4-25.3h37.7v25.3H340.5z M340.5,267.6L224.7,268l0.1-10.4l115.7-0.4V267.6z
	 M340.5,245.1l-115.6,0.4l0.1-10.4l115.5-0.4V245.1z M340.5,223.9l-116,0.4c-2.1-11.8-10.7-21.5-21.9-25.2l137.8-0.5L340.5,223.9
	L340.5,223.9z"/>
</svg>
