<svg width="508" height="507" viewBox="0 0 508 507" fill="none" xmlns="http://www.w3.org/2000/svg">
<path d="M453.571 0H54.4286C24.3795 0 0 24.3135 0 54.2812V452.344C0 482.312 24.3795 506.625 54.4286 506.625H453.571C483.621 506.625 508 482.312 508 452.344V54.2812C508 24.3135 483.621 0 453.571 0ZM314.438 433.911C304.913 435.607 301.398 429.727 301.398 424.864C301.398 418.757 301.625 387.546 301.625 362.327C301.625 344.686 295.729 333.49 288.812 327.61C330.767 322.973 374.99 317.206 374.99 244.944C374.99 224.363 367.62 214.072 355.6 200.841C357.528 195.978 363.991 175.962 353.672 149.952C337.911 145.089 301.852 170.194 301.852 170.194C286.884 166.01 270.669 163.862 254.68 163.862C238.692 163.862 222.477 166.01 207.509 170.194C207.509 170.194 171.45 145.089 155.688 149.952C145.37 175.849 151.72 195.865 153.761 200.841C141.741 214.072 136.071 224.363 136.071 244.944C136.071 316.867 178.367 322.973 220.322 327.61C214.879 332.473 210.004 340.841 208.303 352.828C197.53 357.691 169.976 366.059 153.534 337.109C143.215 319.242 124.619 317.771 124.619 317.771C106.249 317.545 123.371 329.306 123.371 329.306C135.618 334.961 144.236 356.673 144.236 356.673C155.235 390.26 207.849 378.951 207.849 378.951C207.849 394.67 208.076 420.227 208.076 424.864C208.076 429.727 204.674 435.607 195.036 433.911C120.196 408.919 67.8089 337.901 67.8089 254.896C67.8089 151.083 147.411 72.2619 251.505 72.2619C355.6 72.2619 439.964 151.083 439.964 254.896C440.078 337.901 389.278 409.032 314.438 433.911ZM203.2 364.815C201.046 365.268 199.004 364.363 198.778 362.893C198.551 361.196 200.025 359.726 202.179 359.274C204.334 359.048 206.375 359.953 206.602 361.423C206.942 362.893 205.468 364.363 203.2 364.815ZM192.428 363.797C192.428 365.268 190.727 366.512 188.459 366.512C185.964 366.738 184.263 365.494 184.263 363.797C184.263 362.327 185.964 361.083 188.232 361.083C190.387 360.857 192.428 362.101 192.428 363.797ZM176.893 362.554C176.439 364.024 174.171 364.702 172.244 364.024C170.089 363.571 168.615 361.875 169.069 360.405C169.522 358.935 171.79 358.256 173.718 358.709C175.986 359.387 177.46 361.083 176.893 362.554ZM162.946 356.447C161.925 357.691 159.771 357.465 158.07 355.768C156.369 354.298 155.915 352.15 157.049 351.132C158.07 349.888 160.224 350.114 161.925 351.81C163.399 353.28 163.966 355.542 162.946 356.447ZM152.627 346.156C151.606 346.835 149.679 346.156 148.431 344.46C147.184 342.763 147.184 340.841 148.431 340.049C149.679 339.032 151.606 339.823 152.627 341.52C153.874 343.216 153.874 345.251 152.627 346.156V346.156ZM145.256 335.187C144.236 336.204 142.535 335.639 141.287 334.508C140.04 333.038 139.813 331.342 140.834 330.55C141.854 329.532 143.555 330.098 144.803 331.229C146.05 332.699 146.277 334.395 145.256 335.187ZM137.659 326.818C137.205 327.836 135.731 328.062 134.484 327.271C133.01 326.592 132.329 325.348 132.783 324.33C133.237 323.652 134.484 323.313 135.958 323.878C137.432 324.67 138.112 325.914 137.659 326.818Z" fill="#FCFCFD"/>
</svg>
