<svg width="507" height="512" viewBox="0 0 507 512" fill="none" xmlns="http://www.w3.org/2000/svg">
<path d="M470.786 0H36.1011C16.1833 0 0 16.5714 0 36.9143V475.086C0 495.429 16.1833 512 36.1011 512H470.786C490.704 512 507 495.429 507 475.086V36.9143C507 16.5714 490.704 0 470.786 0ZM153.232 438.857H78.0871V194.514H153.345V438.857H153.232ZM115.659 161.143C91.5542 161.143 72.0891 141.371 72.0891 117.143C72.0891 92.9143 91.5542 73.1429 115.659 73.1429C139.651 73.1429 159.23 92.9143 159.23 117.143C159.23 141.486 139.765 161.143 115.659 161.143ZM434.911 438.857H359.766V320C359.766 291.657 359.2 255.2 320.723 255.2C281.566 255.2 275.568 286.057 275.568 317.943V438.857H200.423V194.514H272.513V227.886H273.531C283.603 208.686 308.161 188.457 344.715 188.457C420.765 188.457 434.911 239.086 434.911 304.914V438.857Z" fill="#FCFCFD"/>
</svg>
