<svg width="548" height="450" viewBox="0 0 548 450" fill="none" xmlns="http://www.w3.org/2000/svg">
<path d="M437.324 46.8242C436.139 51.2121 437.501 58.1211 438.014 62.217C438.562 66.596 430.972 70.515 426.629 70.7627C426.735 69.3132 426.328 67.8725 425.479 66.6933C425.468 68.0956 425.18 69.4818 424.629 70.7715H388.385C383.821 62.1817 379.937 50.4424 384.13 38.3051C384.343 35.8675 385.271 33.5469 386.797 31.6347C388.324 29.7224 390.381 28.3037 392.711 27.5566L412.474 21.2314C420.268 21.2314 429.831 22.3372 434.139 28.1405C436.046 30.8123 437.323 33.8812 437.875 37.117C438.426 40.3529 438.238 43.6716 437.324 46.8242V46.8242Z" fill="#5A130A"/>
<path d="M472.026 426.408C472.672 426.431 473.31 426.256 473.853 425.905C474.396 425.554 474.818 425.044 475.061 424.445C475.305 423.847 475.359 423.188 475.215 422.557C475.072 421.927 474.738 421.356 474.259 420.922C474.177 420.606 474.117 420.38 474.035 420.065C474.638 418.489 475.698 417.129 477.079 416.16C478.459 415.19 480.098 414.655 481.785 414.623C483.472 414.591 485.13 415.064 486.547 415.98C487.963 416.897 489.074 418.215 489.736 419.767C493.556 428.477 498.478 437.485 496.164 447.14C511.729 413.323 505.928 371.497 482.178 342.929C475.655 339.416 470.335 333.116 468.896 325.755C472.117 326.812 476.096 324.162 473.65 320.802C472.591 319.519 471.522 318.246 470.463 316.963C482.538 303.855 497.268 324.136 484.007 341.799C488.452 347.264 492.314 353.18 495.529 359.448C494.736 352.767 495.542 345.993 497.878 339.684C500.251 333.802 504.756 328.824 508.716 323.721C513.532 317.503 523.59 320.255 524.32 328.08C519.836 329.602 519.314 336.105 524.468 336.945C523.259 351.527 513.868 365.006 500.819 371.521C505.79 385.058 507.818 399.499 506.769 413.882C508.923 397.064 526.913 392.817 539.451 386.021C540.248 385.499 541.18 385.22 542.133 385.219C543.086 385.217 544.019 385.493 544.817 386.013C545.616 386.533 546.246 387.273 546.631 388.145C547.016 389.017 547.139 389.981 546.985 390.922C545.252 391.646 543.596 392.54 542.04 393.591C541.311 394.091 540.755 394.805 540.447 395.633C540.14 396.462 540.096 397.366 540.322 398.221C540.548 399.075 541.033 399.839 541.711 400.407C542.388 400.975 543.224 401.32 544.105 401.394C537.903 417.176 521.581 427.889 504.713 427.99C503.16 435.049 500.876 441.928 497.9 448.515L472.866 448.753C472.774 448.476 472.691 448.189 472.607 447.912C474.926 448.036 477.251 447.875 479.53 447.433C473.33 440.233 468.554 436.575 472.026 426.408L472.026 426.408Z" fill="#F2F2F2"/>
<path d="M420.359 431.442H410.594L405.947 393.779H420.359V431.442Z" fill="#FFC1A0"/>
<path d="M425.513 448.36H418.511L417.261 441.749L414.06 448.36H395.488C394.597 448.36 393.73 448.076 393.013 447.548C392.296 447.021 391.767 446.278 391.502 445.428C391.237 444.578 391.25 443.665 391.541 442.824C391.831 441.982 392.383 441.256 393.115 440.75L407.946 430.507V423.823L423.546 424.754L425.513 448.36Z" fill="#2F2E41"/>
<path d="M435.686 363.227L428.83 370.18L398.748 347.048L408.865 336.786L435.686 363.227Z" fill="#FFC1A0"/>
<path d="M451.352 371.435L446.436 376.422L440.85 372.67L443.311 379.591L430.272 392.817C429.647 393.451 428.836 393.868 427.956 394.008C427.077 394.149 426.176 394.004 425.385 393.596C424.594 393.188 423.954 392.538 423.558 391.74C423.163 390.943 423.033 390.04 423.187 389.163L426.305 371.41L421.546 366.718L433.161 356.263L451.352 371.435Z" fill="#2F2E41"/>
<path d="M357.577 159.472L387.112 112.481C388.357 110.486 388.769 108.082 388.257 105.787C387.745 103.492 386.352 101.49 384.377 100.213V100.213C383.356 99.5527 382.21 99.1071 381.011 98.9037C379.812 98.7003 378.584 98.7433 377.401 99.03C376.219 99.3168 375.108 99.8413 374.135 100.572C373.162 101.302 372.348 102.223 371.743 103.278L342.559 153.031L323.552 182.515C321.97 182.239 320.342 182.456 318.889 183.137C317.435 183.819 316.227 184.931 315.427 186.323C314.628 187.715 314.277 189.32 314.421 190.918C314.565 192.517 315.198 194.033 316.234 195.259C317.269 196.486 318.657 197.364 320.209 197.774C321.761 198.184 323.402 198.107 324.908 197.552C326.415 196.997 327.714 195.992 328.629 194.674C329.544 193.355 330.032 191.786 330.024 190.181L357.577 159.472Z" fill="#FFC1A0"/>
<path d="M385.411 124.77L387.901 124.301C387.566 123.69 387.426 122.99 387.5 122.297C387.574 121.604 387.858 120.951 388.315 120.424C388.772 119.898 389.379 119.524 390.055 119.353C390.731 119.182 391.443 119.222 392.095 119.468C389.094 116.339 390.552 111.187 392.482 107.305C393.877 104.499 395.445 101.726 396.128 98.6682C397.164 94.0255 395.828 88.4062 389.636 87.2945C387.104 86.8985 384.515 87.4229 382.337 88.7724C378.445 91.0719 377.57 90.0708 375.115 93.7722L373.716 96.3727C371.919 99.188 369.774 101.766 367.332 104.045C365.586 105.784 364.179 107.832 363.182 110.086C363.051 110.365 362.858 110.61 362.617 110.802C361.659 111.542 360.358 111.579 359.158 111.737C357.645 111.935 355.914 112.576 355.953 114.452C355.975 114.901 356.09 115.34 356.29 115.742C356.489 116.145 356.77 116.501 357.114 116.79C363.502 122.379 370.976 126.588 379.068 129.15C380.865 129.718 382.885 130.188 384.576 129.355C386.267 128.522 386.992 125.797 385.411 124.77Z" fill="#057F84"/>
<path d="M422.886 214.084L365.385 213.199L363.615 199.93L368.923 169.852H414.04L422.886 214.084Z" fill="#FFC1A0"/>
<path d="M299.921 249.47H76.1061C70.7116 249.464 65.5399 247.318 61.7254 243.504C57.911 239.689 55.7653 234.517 55.7593 229.123V100.849C55.7654 95.455 57.9111 90.2832 61.7255 86.4688C65.5399 82.6543 70.7117 80.5087 76.1061 80.5026H299.921C305.316 80.5087 310.487 82.6543 314.302 86.4688C318.116 90.2832 320.262 95.455 320.268 100.849V229.123C320.262 234.517 318.116 239.689 314.302 243.504C310.487 247.318 305.316 249.464 299.921 249.47V249.47Z" fill="white"/>
<path d="M299.921 249.47H76.1061C70.7116 249.464 65.5399 247.318 61.7254 243.504C57.911 239.689 55.7653 234.517 55.7593 229.123V100.849C55.7654 95.455 57.9111 90.2832 61.7255 86.4688C65.5399 82.6543 70.7117 80.5087 76.1061 80.5026H299.921C305.316 80.5087 310.487 82.6543 314.302 86.4688C318.116 90.2832 320.262 95.455 320.268 100.849V229.123C320.262 234.517 318.116 239.689 314.302 243.504C310.487 247.318 305.316 249.464 299.921 249.47V249.47ZM76.1061 82.2719C71.1807 82.2774 66.4587 84.2364 62.9759 87.7192C59.4931 91.202 57.5341 95.924 57.5286 100.849V229.123C57.5342 234.048 59.4932 238.77 62.976 242.253C66.4587 245.736 71.1807 247.695 76.1061 247.7H299.921C304.846 247.695 309.568 245.736 313.051 242.253C316.534 238.77 318.493 234.048 318.499 229.123V100.849C318.493 95.924 316.534 91.202 313.051 87.7192C309.569 84.2364 304.847 82.2774 299.921 82.2719H76.1061Z" fill="#E6E6E6"/>
<path d="M318.499 173.69H56.6429C56.4083 173.69 56.1833 173.597 56.0174 173.431C55.8515 173.265 55.7583 173.04 55.7583 172.806C55.7583 172.571 55.8515 172.346 56.0174 172.18C56.1833 172.014 56.4083 171.921 56.6429 171.921H318.499C318.734 171.921 318.959 172.014 319.125 172.18C319.291 172.346 319.384 172.571 319.384 172.806C319.384 173.04 319.291 173.265 319.125 173.431C318.959 173.597 318.734 173.69 318.499 173.69Z" fill="#E6E6E6"/>
<path d="M299.037 41.5783C303.434 41.5783 306.999 38.0136 306.999 33.6165C306.999 29.2193 303.434 25.6547 299.037 25.6547C294.64 25.6547 291.075 29.2193 291.075 33.6165C291.075 38.0136 294.64 41.5783 299.037 41.5783Z" fill="#F2F2F2"/>
<path d="M8.23231 168.348C12.6295 168.348 16.1941 164.783 16.1941 160.386C16.1941 155.989 12.6295 152.424 8.23231 152.424C3.83513 152.424 0.270508 155.989 0.270508 160.386C0.270508 164.783 3.83513 168.348 8.23231 168.348Z" fill="#F2F2F2"/>
<path d="M171.891 304.583C176.289 304.583 179.853 301.018 179.853 296.621C179.853 292.224 176.289 288.659 171.891 288.659C167.494 288.659 163.93 292.224 163.93 296.621C163.93 301.018 167.494 304.583 171.891 304.583Z" fill="#F2F2F2"/>
<path d="M123.807 212.58H96.1674C95.9327 212.58 95.7077 212.487 95.5418 212.321C95.3759 212.155 95.2827 211.93 95.2827 211.695C95.2827 211.461 95.3759 211.236 95.5418 211.07C95.7077 210.904 95.9327 210.811 96.1674 210.811H123.807C124.042 210.811 124.267 210.904 124.433 211.07C124.599 211.236 124.692 211.461 124.692 211.695C124.692 211.93 124.599 212.155 124.433 212.321C124.267 212.487 124.042 212.58 123.807 212.58Z" fill="#CCCCCC"/>
<path d="M123.807 226.734H96.1674C95.9327 226.734 95.7077 226.641 95.5418 226.475C95.3759 226.309 95.2827 226.084 95.2827 225.85C95.2827 225.615 95.3759 225.39 95.5418 225.224C95.7077 225.058 95.9327 224.965 96.1674 224.965H123.807C124.042 224.965 124.267 225.058 124.433 225.224C124.599 225.39 124.692 225.615 124.692 225.85C124.692 226.084 124.599 226.309 124.433 226.475C124.267 226.641 124.042 226.734 123.807 226.734Z" fill="#CCCCCC"/>
<path d="M275.081 212.58H247.441C247.207 212.58 246.982 212.487 246.816 212.321C246.65 212.155 246.557 211.93 246.557 211.695C246.557 211.461 246.65 211.236 246.816 211.07C246.982 210.904 247.207 210.811 247.441 210.811H275.081C275.316 210.811 275.541 210.904 275.707 211.07C275.873 211.236 275.966 211.461 275.966 211.695C275.966 211.93 275.873 212.155 275.707 212.321C275.541 212.487 275.316 212.58 275.081 212.58V212.58Z" fill="#CCCCCC"/>
<path d="M275.081 226.734H247.441C247.207 226.734 246.982 226.641 246.816 226.475C246.65 226.309 246.557 226.084 246.557 225.85C246.557 225.615 246.65 225.39 246.816 225.224C246.982 225.058 247.207 224.965 247.441 224.965H275.081C275.316 224.965 275.541 225.058 275.707 225.224C275.873 225.39 275.966 225.615 275.966 225.85C275.966 226.084 275.873 226.309 275.707 226.475C275.541 226.641 275.316 226.734 275.081 226.734V226.734Z" fill="#CCCCCC"/>
<path d="M224.656 212.58H197.016C196.782 212.58 196.557 212.487 196.391 212.321C196.225 212.155 196.132 211.93 196.132 211.695C196.132 211.461 196.225 211.236 196.391 211.07C196.557 210.904 196.782 210.811 197.016 210.811H224.656C224.891 210.811 225.116 210.904 225.282 211.07C225.448 211.236 225.541 211.461 225.541 211.695C225.541 211.93 225.448 212.155 225.282 212.321C225.116 212.487 224.891 212.58 224.656 212.58V212.58Z" fill="#CCCCCC"/>
<path d="M224.656 226.734H197.016C196.782 226.734 196.557 226.641 196.391 226.475C196.225 226.309 196.132 226.084 196.132 225.85C196.132 225.615 196.225 225.39 196.391 225.224C196.557 225.058 196.782 224.965 197.016 224.965H224.656C224.891 224.965 225.116 225.058 225.282 225.224C225.448 225.39 225.541 225.615 225.541 225.85C225.541 226.084 225.448 226.309 225.282 226.475C225.116 226.641 224.891 226.734 224.656 226.734V226.734Z" fill="#CCCCCC"/>
<path d="M174.232 212.58H146.592C146.357 212.58 146.132 212.487 145.966 212.321C145.8 212.155 145.707 211.93 145.707 211.695C145.707 211.461 145.8 211.236 145.966 211.07C146.132 210.904 146.357 210.811 146.592 210.811H174.232C174.466 210.811 174.691 210.904 174.857 211.07C175.023 211.236 175.116 211.461 175.116 211.695C175.116 211.93 175.023 212.155 174.857 212.321C174.691 212.487 174.466 212.58 174.232 212.58Z" fill="#CCCCCC"/>
<path d="M174.232 226.734H146.592C146.357 226.734 146.132 226.641 145.966 226.475C145.8 226.309 145.707 226.084 145.707 225.85C145.707 225.615 145.8 225.39 145.966 225.224C146.132 225.058 146.357 224.965 146.592 224.965H174.232C174.466 224.965 174.691 225.058 174.857 225.224C175.023 225.39 175.116 225.615 175.116 225.85C175.116 226.084 175.023 226.309 174.857 226.475C174.691 226.641 174.466 226.734 174.232 226.734Z" fill="#CCCCCC"/>
<path d="M363.616 199.045L361.846 222.93L328.466 282.725C326.863 285.387 326.16 288.495 326.46 291.589C326.761 294.682 328.05 297.596 330.136 299.9L382.482 347.332C382.482 347.332 392.773 347.669 391.906 352.533C391.039 357.396 396.539 357.166 396.539 357.166L402.729 361.638L406.078 336.165C394.824 311.036 378.135 303.37 363.616 291.778C363.616 291.778 369.738 289.958 368.446 287.849C367.154 285.74 371.211 285.6 371.211 285.6C371.211 285.6 373.903 285.237 374.067 283.277C374.231 281.317 376.841 281.02 376.841 281.02L391.487 266.278L429.964 264.509C429.964 264.509 446.246 223.717 419.348 197.276L363.616 199.045Z" fill="#2F2E41"/>
<path d="M391.573 255.2L404.309 406.936L423.068 405.801L429.964 264.509L391.573 255.2Z" fill="#2F2E41"/>
<path d="M392.487 74.2179L413.96 73.1117L423.934 88.8715C423.934 88.8715 442.7 92.0089 441.399 114.122C440.098 136.236 418.567 155.64 418.567 155.64L419.487 167.156L417.889 171.723L418.094 174.288L420.274 177.004L420.499 179.813L418.567 184.257L419.348 190.199C419.348 190.199 399.919 194.055 389.729 186.377C379.539 178.698 364.5 183.121 364.5 183.121L363.934 175.802L366.88 171.851L365.234 166.697L367.709 161.74L368.999 145.993C368.999 145.993 354.883 124.785 371.088 108.812L377.592 97.7553L384.869 88.8766L392.487 74.2179Z" fill="#057F84"/>
<path d="M445.142 170.121L443.562 114.641C443.488 112.291 442.493 110.064 440.792 108.441C439.09 106.818 436.819 105.929 434.468 105.965V105.965C433.252 105.984 432.052 106.251 430.942 106.749C429.832 107.247 428.835 107.965 428.012 108.861C427.189 109.757 426.557 110.811 426.154 111.958C425.751 113.106 425.587 114.324 425.67 115.538L429.079 173.118L429.675 208.192C428.207 208.842 426.975 209.928 426.145 211.303C425.316 212.677 424.93 214.274 425.04 215.875C425.149 217.477 425.749 219.006 426.758 220.254C427.767 221.503 429.136 222.411 430.679 222.854C432.222 223.298 433.863 223.256 435.382 222.734C436.9 222.212 438.22 221.235 439.164 219.936C440.107 218.638 440.628 217.08 440.656 215.475C440.683 213.87 440.216 212.295 439.317 210.965L445.142 170.121Z" fill="#FFC1A0"/>
<path d="M448.982 125.801C449.388 125.389 449.647 124.855 449.72 124.281C449.793 123.707 449.676 123.125 449.386 122.625C449.04 122 448.898 121.283 448.979 120.574C448.996 120.437 449.023 120.301 449.058 120.168C449.289 119.368 449.323 118.525 449.158 117.71C448.994 116.894 448.635 116.13 448.111 115.483C446.359 113.379 445.513 110.193 445.147 107.353C444.747 104.245 444.508 101.069 443.375 98.1473C441.741 93.9329 437.835 90.177 432.505 91.9746C430.25 92.7743 428.339 94.327 427.095 96.371C424.437 100.61 424.408 105.735 424.427 110.639L423.471 108.701C423.586 114.056 422.618 119.38 420.625 124.352C421.813 124.121 422.653 125.718 422.269 126.865C421.885 128.013 420.824 128.767 419.914 129.566C418.767 130.572 417.685 132.067 418.761 133.605C419.029 133.965 419.368 134.267 419.758 134.49C420.147 134.713 420.579 134.853 421.025 134.902C429.442 135.996 437.995 135.338 446.145 132.968C447.955 132.441 449.895 131.709 450.837 130.076C451.779 128.443 450.867 125.775 448.982 125.801Z" fill="#057F84"/>
<path d="M404.309 69.8869C415.546 69.8869 424.656 60.7773 424.656 49.5401C424.656 38.3028 415.546 29.1932 404.309 29.1932C393.072 29.1932 383.962 38.3028 383.962 49.5401C383.962 60.7773 393.072 69.8869 404.309 69.8869Z" fill="#FFC1A0"/>
<path d="M193.401 47.4504C206.505 47.4504 217.127 36.8283 217.127 23.7252C217.127 10.6221 206.505 0 193.401 0C180.298 0 169.676 10.6221 169.676 23.7252C169.676 36.8283 180.298 47.4504 193.401 47.4504Z" fill="#057F84"/>
<path d="M192.566 33.2424C192.248 33.2424 191.934 33.1682 191.649 33.0258C191.364 32.8834 191.117 32.6766 190.926 32.4218L185.895 25.7144C185.733 25.499 185.615 25.2537 185.548 24.9925C185.48 24.7314 185.465 24.4596 185.503 24.1926C185.541 23.9256 185.631 23.6687 185.769 23.4366C185.906 23.2045 186.088 23.0017 186.303 22.8399C186.519 22.6782 186.765 22.5605 187.026 22.4937C187.287 22.4269 187.559 22.4123 187.826 22.4507C188.093 22.4891 188.35 22.5797 188.581 22.7174C188.813 22.8552 189.016 23.0373 189.177 23.2533L192.468 27.6411L200.921 14.9621C201.223 14.5106 201.692 14.1975 202.225 14.0915C202.758 13.9854 203.311 14.0951 203.763 14.3965C204.215 14.6979 204.529 15.1663 204.636 15.699C204.743 16.2316 204.635 16.785 204.334 17.2376L194.273 32.329C194.091 32.6019 193.847 32.8272 193.56 32.986C193.272 33.1449 192.952 33.2325 192.624 33.2417L192.566 33.2424Z" fill="white"/>
<path d="M238.834 91.494H137.194C134.718 91.494 132.344 90.5104 130.593 88.7596C128.842 87.0087 127.858 84.6341 127.858 82.1581C127.858 79.6821 128.842 77.3075 130.593 75.5567C132.344 73.8059 134.718 72.8223 137.194 72.8223H238.834C240.061 72.8211 241.276 73.0617 242.41 73.5303C243.543 73.9989 244.574 74.6864 245.441 75.5534C246.309 76.4205 246.998 77.4501 247.468 78.5833C247.937 79.7166 248.179 80.9314 248.179 82.1581C248.179 83.3849 247.937 84.5996 247.468 85.7329C246.998 86.8662 246.309 87.8957 245.441 88.7628C244.574 89.6298 243.543 90.3173 242.41 90.7859C241.276 91.2546 240.061 91.4952 238.834 91.494V91.494Z" fill="#057F84"/>
<path d="M546.397 449.728L320.496 450C320.218 449.998 319.952 449.887 319.756 449.689C319.559 449.492 319.449 449.225 319.449 448.947C319.449 448.668 319.559 448.401 319.756 448.204C319.952 448.007 320.218 447.895 320.496 447.893L546.397 447.621C546.676 447.623 546.942 447.734 547.138 447.932C547.335 448.129 547.445 448.396 547.445 448.675C547.445 448.953 547.335 449.22 547.138 449.418C546.942 449.615 546.676 449.727 546.397 449.728V449.728Z" fill="#CACACA"/>
<path d="M429.964 44.2322V48.6555H412.359C412.538 47.8016 412.539 46.9199 412.36 46.0659C412.182 45.2119 411.83 44.4039 411.324 43.6926C411.31 45.4237 410.879 47.126 410.068 48.6555C399.889 51.6656 391.345 51.6079 384.344 48.6555C383.304 48.6555 382.307 48.2425 381.572 47.5074C380.837 46.7723 380.424 45.7753 380.424 44.7357C380.424 31.1743 391.114 19.7471 404.672 19.4676C407.968 19.3978 411.245 19.9868 414.311 21.2C417.376 22.4132 420.169 24.2263 422.524 26.5328C424.88 28.8394 426.751 31.593 428.029 34.6323C429.306 37.6716 429.964 40.9354 429.964 44.2323V44.2322Z" fill="#5A130A"/>
<path d="M196.418 120.312H161.032C160.093 120.312 159.193 119.939 158.53 119.275C157.866 118.612 157.493 117.712 157.493 116.773C157.493 115.835 157.866 114.935 158.53 114.271C159.193 113.607 160.093 113.234 161.032 113.234H196.418C197.356 113.234 198.256 113.607 198.92 114.271C199.583 114.935 199.956 115.835 199.956 116.773C199.956 117.712 199.583 118.612 198.92 119.275C198.256 119.939 197.356 120.312 196.418 120.312Z" fill="#CCCCCC"/>
<path d="M205.264 195.772H169.878C168.94 195.772 168.04 195.399 167.376 194.735C166.713 194.072 166.34 193.172 166.34 192.233C166.34 191.295 166.713 190.395 167.376 189.731C168.04 189.067 168.94 188.695 169.878 188.695H205.264C206.203 188.695 207.103 189.067 207.766 189.731C208.43 190.395 208.803 191.295 208.803 192.233C208.803 193.172 208.43 194.072 207.766 194.735C207.103 195.399 206.203 195.772 205.264 195.772Z" fill="#CCCCCC"/>
<path d="M272.497 139.774H160.147C159.209 139.774 158.309 139.401 157.645 138.738C156.982 138.074 156.609 137.174 156.609 136.235C156.609 135.297 156.982 134.397 157.645 133.733C158.309 133.07 159.209 132.697 160.147 132.697H272.497C273.436 132.697 274.336 133.07 274.999 133.733C275.663 134.397 276.036 135.297 276.036 136.235C276.036 137.174 275.663 138.074 274.999 138.738C274.336 139.401 273.436 139.774 272.497 139.774Z" fill="#CCCCCC"/>
<path d="M119.008 150.229C132.111 150.229 142.733 139.607 142.733 126.504C142.733 113.401 132.111 102.779 119.008 102.779C105.905 102.779 95.2827 113.401 95.2827 126.504C95.2827 139.607 105.905 150.229 119.008 150.229Z" fill="#E6E6E6"/>
</svg>
